<?xml version="1.0" encoding="UTF-8"?>
<svg version="1.1" xmlns="http://www.w3.org/2000/svg" width="512" height="512">
<path d="M0 0 C3.79164373 3.25126779 7.31554787 6.75020189 10.828125 10.296875 C11.83021022 11.29625653 12.83288777 12.29504444 13.83612061 13.29327393 C15.92334048 15.37463991 18.00326659 17.46295381 20.078125 19.55664062 C22.71590428 22.21720673 25.37124416 24.85940126 28.03236771 27.49659348 C30.10222864 29.55188437 32.1623266 31.61675126 34.21974945 33.68448639 C35.19428215 34.66165555 36.1717061 35.63595139 37.15225983 36.60707855 C46.72627584 46.10913945 54.04822895 55.47754093 54.43188477 69.40625 C54.47993862 88.92865245 44.327883 98.74526924 31.28158428 111.86967613 C29.21107637 113.94620312 27.13843277 116.02058404 25.0657196 118.09490967 C23.55250204 119.6128658 22.03949146 121.1310283 20.52666885 122.64937806 C16.38804386 126.80182808 12.24632921 130.95118407 8.10404074 135.09997916 C4.54711657 138.66329997 0.9920306 142.22845192 -2.56304065 145.79362121 C-14.26457329 157.5283703 -25.97189357 169.25733447 -37.68087247 180.98465288 C-40.22213151 183.52989224 -42.76331577 186.07520625 -45.30447147 188.62054879 C-64.75644694 208.1045713 -84.2106229 227.58639512 -103.67001057 247.06301498 C-108.05307343 251.4500146 -112.43609866 255.83705182 -116.8190918 260.22412109 C-117.36358398 260.76911494 -117.90807616 261.3141088 -118.46906811 261.87561761 C-136.1346378 279.55761644 -153.78914667 297.25060702 -171.4374859 314.94980231 C-189.59924708 333.16380326 -207.77072745 351.3680482 -225.95499704 369.55957899 C-228.52379489 372.12940536 -231.09248881 374.69933558 -233.66112328 377.26932526 C-234.16661192 377.77507194 -234.67210057 378.28081863 -235.19290705 378.80189097 C-243.31827948 386.93195327 -251.43349516 395.07208088 -259.54501158 403.21596498 C-267.6982292 411.40124161 -275.86268373 419.57513975 -284.03791562 427.73843709 C-288.46423549 432.15892811 -292.88555562 436.58413246 -297.29388237 441.02257347 C-301.33187564 445.08792561 -305.38355038 449.1391063 -309.44641616 453.17959681 C-310.91122193 454.64117998 -312.37099996 456.10782369 -313.82509009 457.58006796 C-324.82129381 468.70515367 -335.41519427 477.70387344 -351.8671875 478.0625 C-361.78792435 477.65020964 -370.40636792 474.71399519 -377.74511719 467.9152832 C-378.60907104 467.11667877 -379.4730249 466.31807434 -380.36315918 465.49526978 C-387.46419616 458.77548494 -394.42719281 451.91947547 -401.36914062 445.03588867 C-403.28888077 443.13400089 -405.21679992 441.2410243 -407.15234375 439.35522461 C-409.97821842 436.60178937 -412.77873126 433.82333338 -415.578125 431.04296875 C-416.43448547 430.21443893 -417.29084595 429.38590912 -418.17315674 428.53227234 C-427.11326281 419.56147315 -432.07902133 410.03616298 -432.25 397.3125 C-432.05399012 378.53475306 -420.74618463 368.30403925 -408.20974731 355.82879639 C-406.67520971 354.29080001 -405.14132635 352.75215062 -403.60803974 351.21290708 C-399.40238604 346.99474422 -395.18744417 342.78597166 -390.97088647 338.57871246 C-386.42144054 334.03605689 -381.88063905 329.48477439 -377.3387146 324.93460083 C-368.95790699 316.54064256 -360.56970493 308.15411103 -352.17821378 299.77083441 C-344.42619992 292.02637175 -336.67698588 284.27912117 -328.93053818 276.52909088 C-328.41639061 276.01471416 -327.90224304 275.50033744 -327.37251525 274.97037354 C-325.28535579 272.88228005 -323.19820692 270.79417598 -321.11107548 268.70605448 C-301.53934395 249.12514958 -281.95888045 229.55299735 -262.37448744 209.98475713 C-244.97879387 192.6033021 -227.59087496 175.21410538 -210.20947266 157.81835938 C-190.67513369 138.26795388 -171.13595362 118.72240774 -151.58894527 99.18466878 C-149.5049851 97.10167074 -147.42103673 95.0186609 -145.33709335 92.93564606 C-144.82397976 92.4227697 -144.31086617 91.90989334 -143.78220368 91.38147527 C-136.03684552 83.63952823 -128.29519307 75.89388871 -120.55533218 68.14644623 C-111.75473306 59.33726939 -102.94864858 50.53361813 -94.1357695 41.73672578 C-89.63891542 37.24776027 -85.14450132 32.7564217 -80.65654755 28.25855637 C-76.54869414 24.14176812 -72.43398721 20.0319624 -68.3136891 15.92763057 C-66.82390828 14.44120261 -65.33665364 12.95223757 -63.85218765 11.46050176 C-61.8340649 9.43325508 -59.80692067 7.41547159 -57.77728462 5.3997612 C-56.91615666 4.52809799 -56.91615666 4.52809799 -56.03763217 3.63882542 C-39.86691564 -12.31093931 -18.27793529 -12.77548193 0 0 Z M-30.79410648 39.67105865 C-31.58223948 40.46011345 -32.37037249 41.24916824 -33.18238831 42.06213379 C-34.08407745 42.96244827 -34.9857666 43.86276276 -35.91477966 44.7903595 C-36.92182948 45.800949 -37.92883165 46.81158599 -38.93579102 47.82226562 C-39.98989763 48.87665408 -41.04422403 49.93082284 -42.09875488 50.98478699 C-44.97068283 53.85642683 -47.83950701 56.73114975 -50.70780683 59.60641289 C-53.70226517 62.60710271 -56.69953661 65.60497985 -59.69651794 68.60314941 C-65.37566778 74.28541318 -71.0522627 79.9702223 -76.72795671 85.65593767 C-83.18780313 92.12694333 -89.65047345 98.59512552 -96.11338913 105.06306553 C-109.41208319 118.37222536 -122.70720535 131.68494815 -136 145 C-135.04085954 146.12221184 -134.08126359 147.24403439 -133.12147522 148.36569214 C-132.31998598 149.30282704 -132.31998598 149.30282704 -131.50230503 150.25889397 C-129.83231949 152.1943344 -128.12009508 154.0810286 -126.37109375 155.9453125 C-125.73429687 156.62408447 -125.0975 157.30285645 -124.44140625 158.00219727 C-123.78011719 158.70272217 -123.11882812 159.40324707 -122.4375 160.125 C-121.7465625 160.858396 -121.055625 161.59179199 -120.34375 162.34741211 C-114.02342277 169.027969 -107.55281773 175.54816748 -101 182 C-94.97036604 177.00560623 -89.45699026 171.59211706 -83.93383789 166.04736328 C-82.93795919 165.051202 -81.94185924 164.05526186 -80.94555664 163.05952454 C-78.25992954 160.37418267 -75.57738251 157.68578337 -72.8954041 154.99679804 C-70.08518386 152.18029848 -67.27210448 149.36665747 -64.45933533 146.55270386 C-59.14162096 141.23188962 -53.82645942 135.90853291 -48.51222461 130.58424366 C-42.45854106 124.5193571 -36.40199531 118.45733223 -30.34521496 112.39553857 C-17.89363674 99.93352642 -5.445633 87.46794942 7 75 C5.5569344 71.99064055 4.12941278 69.88065797 1.75952148 67.51660156 C1.10221542 66.85621887 0.44490936 66.19583618 -0.23231506 65.51544189 C-0.94069016 64.81425232 -1.64906525 64.11306274 -2.37890625 63.390625 C-3.10617416 62.66381531 -3.83344208 61.93700562 -4.58274841 61.18817139 C-6.11782286 59.6561141 -7.6553231 58.12648406 -9.19506836 56.59912109 C-11.56228233 54.25021599 -13.92134419 51.89335453 -16.27929688 49.53515625 C-17.77036114 48.04900526 -19.26188184 46.56331205 -20.75390625 45.078125 C-21.46430557 44.3688385 -22.1747049 43.659552 -22.90663147 42.92877197 C-23.88786232 41.9571109 -23.88786232 41.9571109 -24.88891602 40.96582031 C-25.75589867 40.10455536 -25.75589867 40.10455536 -26.64039612 39.22589111 C-28.72081112 37.35007839 -28.67469124 37.69700237 -30.79410648 39.67105865 Z " fill="#2D94F3" transform="translate(458,22)"/>
<path d="M0 0 C7.80116189 4.35064798 10.80798545 8.23411785 13.25 16.8125 C13.7415603 20.87215784 13.71987999 24.86089675 13.640625 28.9453125 C13.63496521 30.06316132 13.62930542 31.18101013 13.62347412 32.33273315 C13.6012622 35.86810961 13.55109311 39.40243504 13.5 42.9375 C13.47991543 45.34894359 13.46166811 47.76040323 13.4453125 50.171875 C13.40144736 56.05243588 13.33468875 61.93239282 13.25 67.8125 C14.21933472 67.79917633 14.21933472 67.79917633 15.20825195 67.7855835 C21.95694094 67.69683175 28.70546309 67.63665022 35.45458984 67.59277344 C37.97060891 67.57270484 40.48658161 67.5454437 43.00244141 67.51074219 C46.62674428 67.46201688 50.25042841 67.43948278 53.875 67.421875 C54.99302002 67.40122986 56.11104004 67.38058472 57.26293945 67.35931396 C64.46503241 67.35726216 70.38594598 68.12638766 75.76757812 73.26019287 C81.22299932 79.49884967 81.70189532 84.26005993 81.55859375 92.39453125 C80.93018655 99.35473756 77.37128392 103.10096296 72.2265625 107.55078125 C66.04327861 111.4978182 59.5738256 111.07506287 52.5078125 111.0078125 C50.82254959 111.00356766 50.82254959 111.00356766 49.10324097 110.99923706 C45.52705073 110.98807303 41.9511141 110.96297501 38.375 110.9375 C35.94531613 110.92746533 33.51562831 110.91834033 31.0859375 110.91015625 C25.14053898 110.88814604 19.19528761 110.85470589 13.25 110.8125 C13.25999275 111.74425049 13.25999275 111.74425049 13.27018738 112.69482422 C13.3367705 119.18402916 13.3818958 125.67313639 13.41479492 132.16259766 C13.42984279 134.5815831 13.45028588 137.00054143 13.47631836 139.41943359 C13.512877 142.90469063 13.5297669 146.3895856 13.54296875 149.875 C13.55845261 150.94927246 13.57393646 152.02354492 13.58988953 153.13037109 C13.59151239 160.43887491 13.0606702 166.55884374 8.09375 172.30859375 C7.3203125 172.94925781 6.546875 173.58992187 5.75 174.25 C4.9765625 174.90871094 4.203125 175.56742188 3.40625 176.24609375 C-2.06687486 180.22204134 -9.3036548 179.44785407 -15.75 178.8125 C-21.7797425 176.59392299 -26.11186071 172.30263182 -28.83737183 166.49580383 C-29.81868871 163.61054187 -29.9915582 161.41894356 -29.97705078 158.37963867 C-29.97689972 157.31891647 -29.97674866 156.25819427 -29.97659302 155.16532898 C-29.96627045 154.0318251 -29.95594788 152.89832123 -29.9453125 151.73046875 C-29.9424826 150.56115311 -29.93965271 149.39183746 -29.93673706 148.18708801 C-29.92555562 144.45795392 -29.90045434 140.72906132 -29.875 137 C-29.86496759 134.46940451 -29.85584219 131.93880526 -29.84765625 129.40820312 C-29.82562292 123.20955323 -29.79216534 117.01104387 -29.75 110.8125 C-30.36672577 110.82138245 -30.98345154 110.83026489 -31.61886597 110.8394165 C-38.07589386 110.92836221 -44.53274585 110.98842916 -50.99023438 111.03222656 C-53.39557981 111.05226034 -55.80087703 111.07949522 -58.20605469 111.11425781 C-61.67655378 111.16313808 -65.14640526 111.18555205 -68.6171875 111.203125 C-69.68113739 111.22377014 -70.74508728 111.24441528 -71.84127808 111.26568604 C-79.42163179 111.26793067 -86.8009216 110.28648777 -92.69235229 105.1038208 C-97.79868967 99.64122733 -99.30298499 93.84790935 -99.125 86.47265625 C-98.34672911 80.95179715 -96.01772538 75.97601918 -91.96484375 72.109375 C-87.46197484 68.78241453 -83.93833947 67.68618685 -78.45239258 67.69897461 C-77.37149857 67.69905014 -76.29060455 67.69912567 -75.17695618 67.69920349 C-74.01125595 67.70436478 -72.84555573 67.70952606 -71.64453125 67.71484375 C-69.85301888 67.71696617 -69.85301888 67.71696617 -68.02531433 67.71913147 C-64.20435092 67.7247365 -60.38344575 67.73728989 -56.5625 67.75 C-53.97461022 67.75501435 -51.38671952 67.75957737 -48.79882812 67.76367188 C-42.44919882 67.77470757 -36.09960357 67.79145064 -29.75 67.8125 C-29.75999275 66.81771133 -29.75999275 66.81771133 -29.77018738 65.80282593 C-29.83662504 58.89220026 -29.88183582 51.98166552 -29.91479492 45.07080078 C-29.92986905 42.49263829 -29.95033167 39.91450138 -29.97631836 37.33642578 C-30.01276086 33.62786539 -30.02974052 29.91964446 -30.04296875 26.2109375 C-30.06619453 24.48561295 -30.06619453 24.48561295 -30.08988953 22.72543335 C-30.09141886 15.43173611 -29.34321318 10.92435582 -24.5625 5.1875 C-16.9721973 -1.22208894 -9.61098615 -3.04347895 0 0 Z " fill="#3F75F3" transform="translate(430.75,286.1875)"/>
<path d="M0 0 C5.29799393 3.05695338 9.3201191 7.81438277 11.6875 13.4375 C11.92800903 15.96856689 11.92800903 15.96856689 11.91455078 18.84863281 C11.91439972 19.92945129 11.91424866 21.01026978 11.91409302 22.12384033 C11.90377045 23.28437927 11.89344788 24.44491821 11.8828125 25.640625 C11.8799826 26.83355164 11.87715271 28.02647827 11.87423706 29.2555542 C11.86304053 33.06630476 11.83793653 36.87682045 11.8125 40.6875 C11.80246954 43.27082994 11.7933438 45.85416356 11.78515625 48.4375 C11.76310289 54.77091349 11.72963035 61.10418997 11.6875 67.4375 C12.34847183 67.42861755 13.00944366 67.41973511 13.69044495 67.4105835 C20.58496431 67.32192228 27.47932106 67.2616875 34.37426758 67.21777344 C36.94562359 67.19768851 39.51693409 67.17041521 42.08813477 67.13574219 C45.78933966 67.08708919 49.48993933 67.06449917 53.19140625 67.046875 C54.33646133 67.02622986 55.48151642 67.00558472 56.66127014 66.98431396 C64.3318706 66.98216933 68.82086017 67.93164198 74.61328125 73.18359375 C79.29267544 78.89113653 81.25574216 83.2512229 81.0546875 90.74609375 C80.25874502 96.58018281 77.94130487 101.42823092 73.52734375 105.36328125 C67.95288249 109.26261225 63.32866079 110.56823712 56.5300293 110.55102539 C55.52936935 110.55094986 54.52870941 110.55087433 53.49772644 110.55079651 C52.4298439 110.54563522 51.36196136 110.54047394 50.26171875 110.53515625 C49.15899124 110.5337413 48.05626373 110.53232635 46.92012024 110.53086853 C43.40505233 110.52528004 39.89004859 110.51272959 36.375 110.5 C33.98893321 110.49498352 31.60286543 110.49042087 29.21679688 110.48632812 C23.3736761 110.47531437 17.53059263 110.45858764 11.6875 110.4375 C11.69638245 111.08372314 11.70526489 111.72994629 11.7144165 112.39575195 C11.80316825 119.14444094 11.86334978 125.89296309 11.90722656 132.64208984 C11.92729516 135.15810891 11.9545563 137.67408161 11.98925781 140.18994141 C12.03798312 143.81424428 12.06051722 147.43792841 12.078125 151.0625 C12.09877014 152.18052002 12.11941528 153.29854004 12.14068604 154.45043945 C12.14286121 162.08558095 11.24341075 167.84063826 5.65234375 173.49609375 C4.98332031 173.95113281 4.31429687 174.40617188 3.625 174.875 C2.95339844 175.34808594 2.28179687 175.82117188 1.58984375 176.30859375 C-3.83371763 179.52709321 -10.22822882 179.07112824 -16.3125 178.4375 C-22.00236467 176.33885357 -25.91166476 172.33870373 -29.3125 167.4375 C-31.93963803 161.6761119 -31.5668256 155.89583377 -31.5078125 149.6953125 C-31.5049826 148.57180389 -31.50215271 147.44829529 -31.49923706 146.29074097 C-31.48807303 142.71455073 -31.46297501 139.1386141 -31.4375 135.5625 C-31.42746533 133.13281613 -31.41834033 130.70312831 -31.41015625 128.2734375 C-31.38814604 122.32803898 -31.35470589 116.38278761 -31.3125 110.4375 C-31.92113892 110.44416183 -32.52977783 110.45082367 -33.15686035 110.45768738 C-39.51630345 110.52428054 -45.87564678 110.5693999 -52.23535156 110.60229492 C-54.60583523 110.61734099 -56.97629125 110.63778273 -59.34667969 110.66381836 C-62.7624394 110.70038506 -66.17782962 110.71726868 -69.59375 110.73046875 C-70.64614868 110.74595261 -71.69854736 110.76143646 -72.78283691 110.77738953 C-80.39231999 110.77911304 -87.1843527 109.87184908 -93.125 104.625 C-93.66769531 104.16480469 -94.21039063 103.70460938 -94.76953125 103.23046875 C-99.64062332 97.57013645 -99.88941249 92.0345494 -99.73046875 84.859375 C-98.97205272 78.65028676 -96.22479148 75.20986772 -91.75 71.0625 C-87.60597484 68.29981656 -84.94302329 67.18689008 -79.90136719 67.21044922 C-78.82054871 67.21060028 -77.73973022 67.21075134 -76.62615967 67.21090698 C-75.46562073 67.22122955 -74.30508179 67.23155212 -73.109375 67.2421875 C-71.31998505 67.24643234 -71.31998505 67.24643234 -69.4944458 67.25076294 C-65.68369524 67.26195947 -61.87317955 67.28706347 -58.0625 67.3125 C-55.47917006 67.32253046 -52.89583644 67.3316562 -50.3125 67.33984375 C-43.97908651 67.36189711 -37.64581003 67.39536965 -31.3125 67.4375 C-31.32138245 66.80602554 -31.33026489 66.17455109 -31.3394165 65.52394104 C-31.42826299 58.92108254 -31.48838863 52.3183953 -31.53222656 45.71508789 C-31.55227812 43.25440568 -31.57952647 40.79377075 -31.61425781 38.33325195 C-31.6630588 34.78585102 -31.68553428 31.23908293 -31.703125 27.69140625 C-31.72377014 26.6004213 -31.74441528 25.50943634 -31.76568604 24.38539124 C-31.76786222 16.8914372 -30.8432065 10.22929461 -25.56207275 4.55763245 C-18.48226305 -1.97898032 -9.01352689 -4.03875339 0 0 Z " fill="#19B5F4" transform="translate(99.3125,49.5625)"/>
<path d="M0 0 C3.61163966 2.93917956 5.50439897 5.27751887 6.9296875 9.76953125 C7.09525891 12.59332491 7.16321914 15.31281759 7.125 18.1328125 C7.1221701 18.92479538 7.11934021 19.71677826 7.11642456 20.53276062 C7.10527613 23.04934124 7.08018172 25.56555914 7.0546875 28.08203125 C7.04465079 29.79361463 7.03552614 31.50520362 7.02734375 33.21679688 C7.00535431 37.40118031 6.97086158 41.58529439 6.9296875 45.76953125 C7.95328369 45.7538208 8.97687988 45.73811035 10.03149414 45.72192383 C13.85384149 45.66734441 17.67615484 45.63308006 21.4987793 45.60473633 C23.14857794 45.58971319 24.79833708 45.56928865 26.44799805 45.54321289 C28.82871286 45.50654226 31.20889658 45.48974022 33.58984375 45.4765625 C34.31929703 45.46107864 35.04875031 45.44559479 35.80030823 45.42964172 C42.29217779 45.42754087 46.89744811 46.91400833 51.8046875 51.39453125 C54.45256848 55.59998928 55.21409346 58.83120955 54.9296875 63.76953125 C53.26371255 69.64944284 50.80383462 72.38746998 45.9296875 75.76953125 C42.05672854 77.20705086 37.95547771 76.8954049 33.8828125 76.8671875 C33.11161072 76.86577255 32.34040894 76.8643576 31.5458374 76.86289978 C29.09041412 76.85731659 26.63508308 76.8447672 24.1796875 76.83203125 C22.51172007 76.82701408 20.84375121 76.82245155 19.17578125 76.81835938 C15.09371463 76.80735266 11.01171669 76.79009961 6.9296875 76.76953125 C6.94539795 77.82865723 6.9611084 78.8877832 6.97729492 79.97900391 C7.03178872 83.92619151 7.06610796 87.87334614 7.09448242 91.82080078 C7.10952488 93.52593588 7.12996403 95.23103257 7.15600586 96.93603516 C7.19259034 99.39365137 7.20945923 101.85075394 7.22265625 104.30859375 C7.23814011 105.06508209 7.25362396 105.82157043 7.26957703 106.60098267 C7.27143204 112.49771244 5.95997072 116.61981961 1.8046875 121.01953125 C-2.61888091 123.71213811 -7.07488173 125.27580124 -12.2890625 124.39453125 C-16.85087996 122.89662104 -19.5368612 120.95946993 -22.0703125 116.76953125 C-23.9995331 112.04722121 -24.33857539 107.78308697 -24.265625 102.74609375 C-24.2627951 101.99991791 -24.25996521 101.25374207 -24.25704956 100.48495483 C-24.24592937 98.12131137 -24.22084071 95.75805857 -24.1953125 93.39453125 C-24.18527212 91.78385967 -24.17614812 90.1731821 -24.16796875 88.5625 C-24.1460169 84.63136181 -24.11154435 80.70051258 -24.0703125 76.76953125 C-25.60570679 76.79309692 -25.60570679 76.79309692 -27.17211914 76.81713867 C-30.99446649 76.87171809 -34.81677984 76.90598244 -38.6394043 76.93432617 C-40.28920294 76.94934931 -41.93896208 76.96977385 -43.58862305 76.99584961 C-45.96933786 77.03252024 -48.34952158 77.04932228 -50.73046875 77.0625 C-51.45992203 77.07798386 -52.18937531 77.09346771 -52.94093323 77.10942078 C-58.03863582 77.11107046 -61.53979488 76.14815027 -66.0703125 73.76953125 C-70.79523973 68.67158345 -71.417714 65.32878045 -71.35546875 58.53515625 C-70.86099529 53.73944101 -68.53116718 51.0934308 -65.0703125 47.95703125 C-60.64193493 45.32768207 -56.04338841 45.63709435 -51.0234375 45.671875 C-49.86663483 45.67399742 -49.86663483 45.67399742 -48.6864624 45.67616272 C-46.23103912 45.68174591 -43.77570808 45.6942953 -41.3203125 45.70703125 C-39.65234507 45.71204842 -37.98437621 45.71661095 -36.31640625 45.72070312 C-32.23433963 45.73170984 -28.15234169 45.74896289 -24.0703125 45.76953125 C-24.09125977 44.75117187 -24.11220703 43.7328125 -24.13378906 42.68359375 C-24.20665934 38.87433149 -24.2522813 35.06512975 -24.29003906 31.25537109 C-24.31004821 29.61236175 -24.33726463 27.96942266 -24.37207031 26.32666016 C-24.42106555 23.95327337 -24.44338754 21.58083476 -24.4609375 19.20703125 C-24.48158264 18.48273926 -24.50222778 17.75844727 -24.52349854 17.01220703 C-24.52586953 11.5178294 -23.08011868 7.37489533 -20.0703125 2.76953125 C-14.50712463 -2.65457692 -6.92835905 -4.1177983 0 0 Z " fill="#1FABF4" transform="translate(250.0703125,14.23046875)"/>
</svg>
